<?xml version="1.0" encoding="UTF-8"?>
<svg id="Layer_2" data-name="Layer 2" xmlns="http://www.w3.org/2000/svg" viewBox="0 0 92.24 88.22">
  <g id="Layer_1-2" data-name="Layer 1">
    <path d="M88.71,38.86l3.53-37.22s0-.09,0-.14c0-.08,0-.15-.01-.23-.01-.08-.03-.15-.06-.22-.01-.05-.02-.09-.04-.14-.01-.03-.03-.04-.04-.07-.03-.07-.08-.13-.12-.19-.04-.06-.09-.12-.14-.18-.05-.05-.1-.09-.16-.14-.06-.05-.13-.1-.2-.14-.02-.01-.04-.03-.06-.04-.04-.02-.09-.02-.13-.04-.07-.03-.15-.05-.23-.07-.08-.02-.15-.02-.23-.02-.05,0-.09-.02-.14-.01l-37.35,1.81c-.83.04-1.46.74-1.42,1.57.04.83.74,1.46,1.57,1.42l33.33-1.62L.46,85.64c-.6.57-.62,1.52-.05,2.12s1.52.62,2.12.05L88.88,5.36l-3.15,33.22c-.08.82.53,1.56,1.35,1.63.82.08,1.56-.53,1.63-1.35Z"/>
  </g>
</svg>