<?xml version="1.0" encoding="UTF-8"?>
<svg id="Layer_2" data-name="Layer 2" xmlns="http://www.w3.org/2000/svg" viewBox="0 0 124.35 91.94">
  <g id="Layer_1-2" data-name="Layer 1">
    <g>
      <path d="M93.31,22.61c-3.7-1.52-7.39-2.52-11.34-3.18-10.27-1.71-22.43-1.5-32.8-.3-10.4,1.2-19.61,4.45-26.67,12.33-4.08,4.55-6.65,9.97-7.66,16-.83,4.94-.54,9.89,1.23,14.55,1.93,5.05,5.62,8.94,10.59,11.03l3.86,1.33-3.88,11.03c-.7,2-1.47,4.83-.27,5.91,1.47,1.32,4.04.28,6.16-.69,4.07-1.86,7.88-3.94,11.71-6.42l8.37-5.41,3.3.05c11.68.45,25.03-.89,35.45-6.33,7.79-4.06,13.84-10.2,16.4-18.7,4.12-13.68-1.27-25.77-14.47-31.21ZM102.96,55.92c-3.25,7.62-10.17,12.8-17.73,15.84-3.18,1.28-6.36,2.08-9.75,2.76-5.91,1.17-11.82,1.32-17.86,1.25l-4.23-.05c-1.55-.02-2.76.38-4.02,1.22-3.71,2.49-7.41,4.84-11.28,7.1-2.79,1.54-5.37,2.96-8.48,4.3l4.63-13.56c.21-.63.28-1.36-.04-1.91-.25-.42-.95-.97-1.57-1.09-6.66-1.3-11.81-6.03-13.55-12.63-1.15-4.36-1.12-8.84-.09-13.27,2.95-12.62,13.08-20.62,25.58-23.03,5.8-1.12,11.57-1.44,17.46-1.6h7.14c6.43,0,14.35,1.03,20.42,3.2,2.96,1.06,5.65,2.42,8.12,4.37,4.19,3.31,6.84,8.04,7.37,13.39.48,4.72-.27,9.34-2.13,13.71Z"/>
      <path d="M113.09,13.24l-3.15.54c-2.33.62-4.25,2.16-5.25,4.36-1.09,2.42-.98,4.8-1.65,4.88-.93.11.01-6.8-6.04-9.03-2.21-.82-4.11-.41-4.4-.99-.05-.1.2-.36.34-.4l3.04-.8c2.81-1.02,4.8-3.31,5.65-6.16l1.08-5.07c.05-.22.25-.5.38-.55.5-.22.66,3.49,1.59,5.97,2.57,6.88,8.33,6.02,8.82,6.84.07.11-.27.39-.4.41Z"/>
      <path d="M107.31,77.47l-.33.4-15.99,4.03-11.2,2.81c-.69.17-1.22.45-2.06.41.93-1.11,2.02-1.78,3.34-2.39,6.43-2.96,13.31-4.78,20.38-5.51l5.38-.07c.15,0,.56.23.48.31Z"/>
      <path d="M120.8,26.31c-1.03.58-1.87,1.49-2.12,2.62l-.58,2.56c-.04.19-.2.55-.3.48-.65-.39-.28-2.6-1.79-4.56-1.57-2.04-4.1-1.78-4.94-2.12-.14-.05.12-.48.28-.51,2.71-.46,4.84-1.66,5.62-4.35.32-1.1.11-2.1.95-3.21l.64,2.76c.45,2.64,2.53,4.46,5.22,4.7l.49.3c.61.37-1.89.44-3.46,1.32Z"/>
      <path d="M27.37,22.14l-6.43.3c-3.52.17-6.82.69-10.25,1.12l-5.12.64c.67-1.16,1.73-1.61,2.88-2.07,4.89-1.99,10.29-2.29,15.45-1.17,1.22.26,2.32.39,3.48,1.19Z"/>
      <path d="M17.51,30.89l-4.85.96-12.09,2.57-.53-.17c-.14-.04.04-.55.18-.64l1.94-1.23c4.77-2.25,10.05-2.97,15.25-2.13l.41.3c.08.06-.21.31-.32.33Z"/>
      <path d="M48.37,47.98c0,2.04-1.66,3.7-3.7,3.7s-3.7-1.66-3.7-3.7,1.66-3.7,3.7-3.7,3.7,1.66,3.7,3.7Z"/>
      <circle cx="62.48" cy="47.99" r="3.68"/>
      <path d="M83.84,48.01c0,2.03-1.65,3.68-3.67,3.68s-3.68-1.65-3.68-3.68,1.65-3.67,3.68-3.67,3.67,1.65,3.67,3.67Z"/>
    </g>
  </g>
</svg>