<?xml version="1.0" encoding="UTF-8"?>
<svg id="Layer_2" data-name="Layer 2" xmlns="http://www.w3.org/2000/svg" viewBox="0 0 16 16">
  <g id="Layer_1-2" data-name="Layer 1">
    <g>
      <path d="M12.25,2.95c-.54,0-.94.4-.94.94s.4.94.94.94.94-.4.94-.94c0-.54-.4-.94-.94-.94Z"/>
      <path d="M8.03,4.15c-2.21,0-3.95,1.81-3.95,3.95s1.81,3.95,3.95,3.95,3.95-1.81,3.95-3.95-1.74-3.95-3.95-3.95ZM8.03,10.64c-1.41,0-2.54-1.14-2.54-2.54s1.14-2.54,2.54-2.54,2.54,1.14,2.54,2.54-1.14,2.54-2.54,2.54Z"/>
      <path d="M11.25,0h-6.36C2.14,0,0,2.14,0,4.82v6.36c0,2.68,2.14,4.82,4.82,4.82h6.36c2.68,0,4.82-2.14,4.82-4.82v-6.36c.07-2.68-2.08-4.82-4.75-4.82ZM14.53,11.25c0,1.81-1.47,3.35-3.35,3.35h-6.36c-1.81,0-3.35-1.47-3.35-3.35v-6.36c0-1.81,1.47-3.35,3.35-3.35h6.36c1.81,0,3.35,1.47,3.35,3.35v6.36Z"/>
    </g>
  </g>
</svg>