<?xml version="1.0" encoding="UTF-8"?>
<svg id="Layer_2" data-name="Layer 2" xmlns="http://www.w3.org/2000/svg" viewBox="0 0 16 16">
  <g id="Layer_1-2" data-name="Layer 1">
    <path d="M14.55,0H1.45C.65,0,0,.65,0,1.45v13.11c0,.8.65,1.45,1.45,1.45h13.11c.8,0,1.45-.65,1.45-1.45V1.45c0-.8-.65-1.45-1.45-1.45ZM4.95,13.82c0,.23-.19.42-.42.42h-1.79c-.23,0-.42-.19-.42-.42v-7.52c0-.23.19-.42.42-.42h1.79c.23,0,.42.19.42.42v7.52ZM3.63,5.17c-.94,0-1.7-.76-1.7-1.7s.76-1.7,1.7-1.7,1.7.76,1.7,1.7-.76,1.7-1.7,1.7ZM14.32,13.85c0,.21-.17.39-.39.39h-1.92c-.21,0-.39-.17-.39-.39v-3.53c0-.53.15-2.3-1.37-2.3-1.19,0-1.43,1.22-1.47,1.76v4.07c0,.21-.17.39-.39.39h-1.86c-.21,0-.39-.17-.39-.39v-7.58c0-.21.17-.39.39-.39h1.86c.21,0,.39.17.39.39v.66c.44-.66,1.09-1.17,2.48-1.17,3.08,0,3.06,2.88,3.06,4.46v3.64h0Z"/>
  </g>
</svg>