<?xml version="1.0" encoding="UTF-8"?>
<svg id="Layer_2" data-name="Layer 2" xmlns="http://www.w3.org/2000/svg" viewBox="0 0 159.28 67.43">
  <g id="Layer_1-2" data-name="Layer 1">
    <g>
      <path d="M158.79,26.46l-1.25-.9c-2.93-2.11-5.87-3.84-9.29-5.01l-9.67-3.3c-8.08-2.76-16.09-5.27-24.37-7.47-10.64-2.83-21.2-5.34-32.02-7.36-4.54-.85-8.83-1.71-13.4-2.27-2.17-.27-4.23-.18-6.28.75-4.66,2.12-9.01,4.92-12.82,8.32-1.76,1.57-2.53,3.86-1.49,6l2.43,5.03,1.96,4.15-5.71.21c-2.64.1-5.23.27-7.82.63-1.7.34-2.96,1.08-4.16,2.29-3.08,3.09-5.49,6.67-7.62,10.48-5.44.3-10.64.78-15.91,1.89-3.8.79-8.83,2.28-11.03,5.46,8.49-1.7,16.53-3.04,25.14-3.85l-2.34,6.51-2.69,9.5c-.15.52.15,1.33.49,1.6.31.25,1,.44,1.5.4,4.39-.37,8.53-1.09,12.86-1.88,6.28-1.14,12.35-2.37,18.54-3.82l4.21,4.41c2.07,2.17,4.05,4.29,6.29,6.24,1.42,1.24,3.21,1.73,4.88.82l4.13-2.26c7.17-4.33,14.47-8.2,22.16-11.61l22.47-9.96c6.97-3.09,13.91-5.79,21.09-8.25l3.06-.85,9.4-1.22c2.52-.33,4.85-.91,6.99-2.29.36-.23.74-.83.77-1.2.03-.32-.24-1.01-.5-1.19ZM114.33,40.27l-6.19,2.73-12.17,5.21c-6.06,2.6-11.84,5.3-17.79,8.37l-9.48,5.29c-.88.57-1.92.51-2.66-.26l-8.37-8.59,15.74-3.82,15.18-3.95,35.7-9.24-9.95,4.26ZM148.22,28.07c-5.54.62-10.89,1.44-16.34,2.74l-17.78,4.26-25.29,6.59-35.42,8.78-18.58,3.84c-3.53.65-6.88,1.22-10.5,1.62,1.33-5.26,2.92-10.09,5.19-14.77l21.08-2,6.39-.91-6.87-.32-18.86-.07c1.01-1.77,1.96-3.43,3.29-4.89l2.82-3.07c.65-.71,1.42-1.12,2.36-1.25,3.74-.48,7.39-.68,11.16-.78l8.06-.2,17.69-.13,42.9-.11c3.21,0,6.11-.03,9.23-.47.53-.08,1.02-.96,1.04-1.4.03-.46-.37-1.27-.97-1.43-5.79-1.54-11.5-2.62-17.46-3.6-12.58-2.07-25.03-3.73-37.68-5.17l-13.31-1.52-.14.2,22.47,3.85,18.8,3.04c5.41.98,10.68,1.59,16.17,3.16l-54.87.11c-2.18,0-4.03.22-6.13.11-1.98-3.42-3.64-6.74-5.28-10.27-.41-.87-.05-1.9.72-2.53,3.54-2.89,7.36-5.36,11.48-7.39,1.2-.59,2.5-.87,3.81-.68l8.02,1.13c15.52,2.84,30.79,6.36,45.96,10.76l18.1,5.83,7.53,2.54c2.48.84,4.72,1.88,6.89,3.5l-5.71.89Z"/>
      <path d="M145.98,43.39l-8.84,2.12-10.98,3.5c-3.55,1.13-7.03,1.94-10.71,2.43l-8.35,1.66c1.6-2.38,6.17-4.08,9.23-4.82l9.04-2.18c5.07-1.22,10.04-2.27,15.24-2.68,1.84-.14,3.52-.26,5.37-.04Z"/>
      <path d="M37.75,12.98l-8.95,1.27-14,2.31c-3.78.62-7.23.96-10.94,1.23l-3.44.07c-.14,0-.48-.35-.41-.44l.31-.39c3.36-1.24,6.68-2.04,10.22-2.73,4.87-.89,9.65-1.49,14.61-1.71,3.06-.14,6-.09,9.06-.02,1.19.02,2.33.16,3.55.41Z"/>
      <path d="M49.66,4.55l-11.44.72-4.78.26-3.43.09-6.47.12c.93-.97,2.05-1.38,3.33-1.76,4.44-1.31,9.06-1.54,13.71-1.13,3.06.27,5.95.6,9.08,1.69Z"/>
      <path d="M53.1,62.03l-9.25,2.42-10.79,2.83c-1.08.28-2.17.09-3.22.02.9-1.87,4.66-3.19,6.75-3.73,4.73-1.22,11.53-2.33,16.51-1.53Z"/>
      <path d="M28.24,29.53c-6.16,1.76-12.17,2.54-18.3,3.36l-3.97.32c.1-.31.35-.76.54-.86,3.65-1.93,8.31-3,12.44-3.22,3.11-.17,6.13-.34,9.29.4Z"/>
      <path d="M41.06,20.79l-4.69.95c-4.68.95-9.25,1.38-14.19,1.12.79-.94,2-1.3,3.16-1.64,5.02-1.43,10.57-1.57,15.72-.43Z"/>
    </g>
  </g>
</svg>