<?xml version="1.0" encoding="UTF-8"?>
<svg id="Layer_2" data-name="Layer 2" xmlns="http://www.w3.org/2000/svg" viewBox="0 0 123.97 118.51">
  <g id="Layer_1-2" data-name="Layer 1">
    <g>
      <path d="M96.41,27.85c-1.39-2.22-3.26-4.06-5.84-4.9-1.91-.62-4.49-.52-6.04,1.03L10.44,98.06c-3.13,4.18.45,8.38,4.35,10.86,2.54,1.62,5.57,1.49,7.74-.68l48.04-48.09,24.56-24.48c2.59-1.89,3.05-5.2,1.28-7.81ZM29.86,86.11l1.75-1.35c-1.14,2.4-2.49,1.92-1.75,1.35ZM31.93,94.25l-10.88,10.9c-1.04,1.56-2.72,1.84-4.37,1.14-1.16-.84-2.32-1.79-3.3-2.84-1.29-1.38-.65-3.15.76-4.56l10.95-10.9c.53-.53,1.5-.7,2.05-.15l2.09,2.11,2.8,2.68c.29.28.19,1.33-.1,1.62ZM34.56,88.12l-1.23,1.41c-.21.1-.68-.35-.77-.69-.2-.69,1.49-2.29,2.67-1.83-.18.4-.4.8-.66,1.1ZM93.01,33.32l-4.93,4.93-8.09,7.93c-.65.63-1.82.05-2.12-.64l-4.15-3.93c-.55-.52-.6-1.66,0-2.26l12.57-12.55c1.78-1.78,5.4-.36,7.09,2.66.65,1.16.62,2.87-.37,3.86Z"/>
      <path d="M123.91,19.25l-.38.05c-5.22.71-9.54,3.74-11.79,8.51-1.56,3.4-2.41,7-2.72,10.73l-.26.26s-.11-.04-.22-.14l-.45-4.75c-.92-5.46-2.74-10.53-8.07-12.76-1.86-.78-3.76-1.17-5.77-1.51l-.52-.09c-.11-.02-.05-.41-.03-.52,10.03.06,13.84-10.12,14.73-18.94l.42-.09c.08-.02.13.27.13.37.16,2.75.51,5.34,1.3,7.96,1.9,6.25,7.34,9.73,13.66,10.4.02.15.05.51-.03.52Z"/>
      <path d="M97.47,70.74c-8.26,1.51-11.14,7.04-11.87,14.89,0,.1-.23.53-.28.45l-.25-.35c-.11-2.48-.42-4.84-1.22-7.16-.71-2.35-2.18-4.17-4.23-5.46-1.88-1.19-3.87-1.43-6.17-2.18,3.96-.34,6.98-2.02,8.84-5.28.71-1.25,1.39-2.49,1.74-3.91l1.42-5.79c.76,4.61.85,8.55,4.58,11.68,2.13,1.79,4.59,2.37,7.43,3.12Z"/>
      <path d="M31.73,56.37c-4.74.71-8.28,3.4-9.7,7.75-.91,2.02-.82,4.1-1.57,6.49-.78-4.91-1.1-9.82-5.73-12.34-1.72-.93-3.51-1.26-5.52-1.97,8.17-.55,9.8-6.7,11.3-13.77.44,2.05.48,3.86,1,5.7.77,2.76,2.43,4.88,4.93,6.25,1.65.9,3.34,1.26,5.29,1.91Z"/>
      <path d="M75.07,5.87c-1.2,8.43-6.45,18.42-12.42,24.63l3.59-8.11c2.55-5.76,4.14-11.73,5.15-17.95l.63-2.51c.14-.55.8-1.04,1.27-1.05,1.8-.07,2.1,2.73,1.78,4.99Z"/>
      <path d="M48.11,16.45l-2.89,9.58c-1.9,6.14-2.7,12.14-3.12,18.99-1.83-4.31-2.02-8.95-1.8-13.37.26-5.21,2.17-10.04,5.41-14.07l1.63-1.62c.12-.12.48-.19.63-.19.15,0,.16.49.15.68Z"/>
      <path d="M70.99,106.61c-.63,1.25-3.02-.2-4.36-1.96-3.65-4.79-5.71-10.8-5.77-17.05.95.75.95,1.92,1.41,2.88,1.86,3.99,4.07,7.66,6.62,11.23l2.19,3.63c.18.3.05,1.01-.08,1.27Z"/>
      <path d="M46.13,108.99c-1.35,9.02-8.48,10.6-7.63,8.93l2-3.93,1.37-2.87c1.86-3.9,2.75-7.98,4.14-12.3.81,3.47.61,6.87.11,10.17Z"/>
      <path d="M17.11,81.08l-.32.43c-2.92,1.69-6.06,2.8-9.41,3.36-2.96.51-7.82-.28-7.35-2.46.28-1.29,3.17-1.28,5.14-1.05,3.95.32,7.8.23,11.66-.67.1.09.33.33.28.4Z"/>
      <path d="M109.97,54.69c-.76.49-1.82.06-2.5-.3l-3.21-1.74c-3.17-1.72-6.25-3.08-10.02-4.17,2.9-1.08,5.92-.55,8.75.17,4.9,1.25,8.16,5.29,6.97,6.04Z"/>
    </g>
  </g>
</svg>