<?xml version="1.0" encoding="UTF-8"?>
<svg id="Layer_2" data-name="Layer 2" xmlns="http://www.w3.org/2000/svg" xmlns:xlink="http://www.w3.org/1999/xlink" viewBox="0 0 229.52 54.87">
  <defs>
    <style>
      .cls-1 {
        fill: #fff;
      }

      .cls-2 {
        mask: url(#mask);
      }

      .cls-3 {
        filter: url(#luminosity-invert-noclip);
      }

      .cls-4 {
        fill: #1a1b21;
      }
    </style>
    <filter id="luminosity-invert-noclip" x="189.02" y="26.45" width="40.49" height="26.97" color-interpolation-filters="sRGB" filterUnits="userSpaceOnUse">
      <feColorMatrix result="cm" values="-1 0 0 0 1 0 -1 0 0 1 0 0 -1 0 1 0 0 0 1 0"/>
      <feFlood flood-color="#fff" result="bg"/>
      <feBlend in="cm" in2="bg"/>
    </filter>
    <mask id="mask" x="189.02" y="26.45" width="40.49" height="26.97" maskUnits="userSpaceOnUse">
      <g class="cls-3">
        <g>
          <path class="cls-1" d="M198.44,30.18c.49,0,.96.05,1.43.17.47.11.97.3,1.51.56v1.56c-.53-.3-1.01-.52-1.46-.66s-.91-.2-1.4-.2c-.61,0-1.16.13-1.65.38-.49.25-.87.61-1.14,1.06-.27.46-.41.97-.41,1.52s.13,1.08.4,1.54c.27.45.65.8,1.14,1.05s1.04.37,1.65.37c.47,0,.92-.07,1.34-.2.43-.13.96-.38,1.61-.73v1.56c-.55.29-1.06.5-1.53.62-.47.12-1.01.18-1.63.18-.9,0-1.71-.18-2.42-.54-.71-.36-1.27-.88-1.67-1.55-.41-.68-.61-1.42-.61-2.22,0-.86.21-1.63.63-2.32.42-.69.99-1.21,1.73-1.59.73-.37,1.56-.56,2.48-.56Z"/>
          <path class="cls-1" d="M204.7,30.29v7.26h4.15v1.29h-5.8v-8.55h1.65Z"/>
          <path class="cls-1" d="M211.32,30.29v4.98c0,.51.08.92.23,1.22.15.3.4.55.75.75.35.2.75.29,1.21.29.51,0,.94-.09,1.29-.28s.61-.44.77-.76c.16-.32.24-.76.24-1.33v-4.87h1.65v5.08c0,1.15-.34,2.04-1.03,2.65-.69.62-1.66.93-2.93.93-.79,0-1.48-.14-2.06-.42-.58-.28-1.02-.69-1.33-1.22-.31-.53-.46-1.16-.46-1.88v-5.14h1.66Z"/>
          <path class="cls-1" d="M222.43,30.29c.78,0,1.42.2,1.92.61.49.41.74.92.74,1.53,0,.39-.1.74-.31,1.03-.21.3-.5.54-.9.71v.07c.6.13,1.06.4,1.39.8.33.4.5.86.5,1.4,0,.47-.12.9-.36,1.27-.24.37-.58.65-1.01.84-.43.19-.94.28-1.52.28h-3.58v-8.55h3.13ZM221.99,33.84c.44,0,.78-.1,1.03-.31.25-.21.38-.5.38-.87,0-.33-.12-.59-.35-.79-.23-.19-.54-.29-.92-.29h-1.19v2.26h1.04ZM222.37,37.55c.56,0,.98-.1,1.27-.32.29-.21.43-.52.43-.93,0-.36-.14-.65-.43-.86-.28-.21-.66-.32-1.14-.32h-1.55v2.42h1.43Z"/>
        </g>
      </g>
    </mask>
  </defs>
  <g id="Layer_1-2" data-name="Layer 1">
    <g>
      <g>
        <g>
          <path class="cls-4" d="M54.5,28.08c1.77,0,3.29,1.17,4.55,3.52.14.22.09.39-.16.51-.25.13-.43.08-.54-.14-.54-1.01-1.14-1.68-1.79-2.01-.33-.18-.65-.27-.98-.27-.11,0-.24,0-.38.03-.14.02-.29.06-.43.14-1.23.43-2.46,1.66-3.68,3.69-1.12,1.95-1.84,3.9-2.17,5.85-.04.14-.06.3-.08.46-.02.16-.03.32-.03.46v.43c0,.36.02.67.05.92.14.62.4,1.01.76,1.19.25.14.58.16.98.05.4-.14.83-.4,1.3-.76.87-.69,1.82-1.73,2.87-3.14,1.01-1.26,2.15-3.03,3.41-5.31.18-.54.58-.81,1.19-.81.18,0,.34.03.49.08.14.05.27.12.38.19.11.07.2.18.27.33.07.14.11.29.11.43,0,.04,0,.08-.03.14-.02.05-.03.12-.03.19-.14.4-.27.97-.38,1.71-.11.74-.16,1.49-.16,2.25v.6c.07.98.25,1.73.54,2.28.29.62.72.96,1.3,1.03h.22c.43,0,.94-.16,1.52-.49.61-.36,1.26-.9,1.95-1.63.87-.9,1.9-2.39,3.09-4.44.12-.21.28-.29.46-.22.03.01-.08,1.13-.1,1.17-1.08,1.8-2.03,3.12-2.85,3.97-.76.8-1.46,1.39-2.11,1.79-.22.11-.39.2-.51.27-.13.07-.33.17-.62.3-.29.13-.58.23-.87.3-.29.07-.58.11-.87.11-.61,0-1.19-.16-1.73-.49-1.23-.72-1.84-2.39-1.84-4.99,0-.51.04-1.03.11-1.57-.07.07-.13.14-.16.22-.9,1.45-1.59,2.48-2.06,3.09-1.12,1.45-2.13,2.53-3.03,3.25-1.16.87-2.26,1.3-3.3,1.3-.43,0-.81-.07-1.14-.22-1.01-.43-1.52-1.52-1.52-3.25,0-1.52.35-3.22,1.06-5.09.7-1.88,1.65-3.54,2.84-4.99,1.19-1.44,2.38-2.24,3.58-2.38.18-.04.36-.05.54-.05Z"/>
          <path class="cls-4" d="M80.55,28.13c.47-.04.85.13,1.14.49.22.25.33.74.33,1.46,0,.36-.04.85-.11,1.46-.04.29-.07.64-.11,1.06-.04.42-.08.8-.14,1.14-.05.34-.11.73-.16,1.17-.05.43-.1.83-.14,1.19,0,.22,0,.44-.03.68-.02.24-.04.47-.05.7-.02.24-.03.44-.03.62,0,.4.02.77.05,1.11.04.34.09.66.16.95.22,1.01.67,1.61,1.35,1.79.14.04.29.05.43.05.54,0,1.16-.22,1.84-.65.79-.51,1.64-1.26,2.55-2.28.94-1.08,1.82-2.26,2.65-3.52.14-.25.33-.31.57-.16.23.14-.06.28-.03.53-.08.13,0,.32-.09.45-.76,1.16-1.6,2.24-2.51,3.25-.98,1.08-1.88,1.88-2.71,2.38-1.23.8-2.31,1.19-3.25,1.19-.51,0-.98-.09-1.41-.27-1.26-.61-1.9-2.29-1.9-5.04,0-.61.03-1.3.08-2.06.05-.76.12-1.42.19-1.98.07-.56.14-1.12.22-1.68.07-.56.11-.98.11-1.27,0-.36-.05-.56-.16-.6h-.11c-.14,0-.29.05-.43.16-.14.11-.3.28-.46.51-.16.24-.33.48-.51.73-.18.25-.36.56-.54.92-.18.36-.35.7-.51,1-.16.31-.34.67-.54,1.08-.2.42-.37.77-.51,1.06-.14.29-.3.62-.46.98-.16.36-.28.63-.35.81-.98,2.06-1.73,3.51-2.28,4.34-1.05,1.55-2.1,2.33-3.14,2.33-.22,0-.45-.04-.7-.11-1.45-.47-2.17-2.64-2.17-6.5,0-1.08.05-2.22.16-3.41.11-1.19.23-2.19.38-3.01.14-.81.27-1.38.38-1.71.25-.61.7-.92,1.35-.92.33,0,.61.1.87.3.25.2.38.46.38.79v.14c0,.05-.02.1-.05.14-.69,2.24-1.05,4.86-1.08,7.86v.38c0,1.34.11,2.4.33,3.2.11.47.25.83.43,1.08.14.22.31.34.49.38.22.07.45,0,.7-.22.29-.25.61-.65.98-1.19.54-.79,1.28-2.19,2.22-4.17.07-.14.29-.61.65-1.41.36-.79.6-1.3.7-1.52s.33-.65.65-1.3c.33-.65.58-1.12.76-1.41.18-.29.41-.66.7-1.11.29-.45.56-.82.81-1.11.25-.29.52-.54.81-.76.4-.33.81-.49,1.25-.49Z"/>
          <path class="cls-4" d="M101.52,10.52h.11c.94,0,1.7.58,2.28,1.73.51,1.05.83,2.49.98,4.34.07.76.11,1.57.11,2.44,0,3.22-.42,6.52-1.25,9.92-.22.9-.49,1.89-.81,2.95-.33,1.07-.6,1.91-.81,2.52l-.38.98c.25,1.12.79,2.35,1.6,3.69.81,1.34,1.65,2.08,2.52,2.22h.38c1.08,0,2.2-.74,3.36-2.22.76-1.05,1.44-2.22,2.06-3.52.11-.18.23-.27.38-.27s.26.05.35.16c.09.11.1.24.03.38,0,.04-.13.3-.38.79-.25.49-.53.99-.84,1.49-.31.51-.62.99-.95,1.46-.83,1.12-1.68,1.99-2.55,2.6-.4.29-.82.51-1.27.68-.45.16-.91.24-1.38.24-.18,0-.38-.02-.6-.05-.94-.14-1.81-.76-2.6-1.84-.58-.72-1.1-1.68-1.57-2.87-.33.54-.61,1.01-.87,1.41-1.84,3.07-3.94,4.61-6.28,4.61-.25,0-.5-.02-.73-.05-.24-.04-.46-.09-.68-.16-1.91-.61-2.98-2.49-3.2-5.64-.04-.33-.05-.65-.05-.98,0-1.77.32-3.48.95-5.12.63-1.64,1.45-2.81,2.46-3.5.72-.47,1.48-.7,2.28-.7.94,0,1.78.33,2.52.98.74.65,1.2,1.48,1.38,2.49.04.25-.08.41-.35.46-.27.05-.43-.06-.46-.35-.11-.72-.4-1.26-.87-1.63-.14-.14-.32-.25-.51-.33-.2-.07-.43-.11-.68-.11s-.51.04-.76.11c-.94.25-1.75,1.12-2.44,2.6-.22.47-.41.97-.57,1.49s-.29,1.07-.38,1.63c-.09.56-.14,1.13-.14,1.71,0,1.48.23,2.78.7,3.9.51,1.16,1.16,1.82,1.95,2.01.14.04.31.05.49.05.61,0,1.28-.27,2-.81.9-.65,1.81-1.68,2.71-3.09.36-.58.74-1.25,1.14-2.01-1.01-2.96-1.68-6.56-2-10.79-.07-1.37-.11-2.71-.11-4.01s.04-2.47.14-3.6c.09-1.14.21-2.18.35-3.12.29-1.55.69-2.76,1.19-3.63.54-1.05,1.23-1.59,2.06-1.63ZM102.49,12.63c-.22,0-.42.07-.6.22-.18.15-.34.34-.49.6-.14.25-.28.56-.41.92-.13.36-.24.77-.35,1.22-.11.45-.2.94-.27,1.46-.07.52-.14,1.08-.19,1.65-.05.58-.09,1.18-.11,1.82-.02.63-.03,1.29-.03,1.98,0,4.48.45,8.4,1.35,11.76.61-1.88,1.14-3.7,1.57-5.47.79-3.32,1.19-6.58,1.19-9.76,0-.83-.04-1.63-.11-2.38-.07-.94-.25-1.84-.54-2.71-.29-.87-.63-1.3-1.03-1.3Z"/>
          <path class="cls-4" d="M170.92,28.13h.2c.44.04.82.31,1.16.81.3.4.57.96.81,1.68.3,1.01.62,2.64.96,4.88.27,1.73.56,3.07.86,4.01.13.43.27.74.4.92,0,.04.02.07.05.11.1-.11.2-.29.3-.54.2-.47.52-1.39.96-2.76.87-2.6,1.67-4.61,2.37-6.02.5-.98,1.01-1.72,1.51-2.22.54-.54,1.08-.81,1.61-.81h.15c.47.04.84.33,1.11.87.17.36.27.9.3,1.63.03.18.05.38.05.6,0,.58-.08,1.86-.25,3.85-.03.11-.05.22-.05.33v.33c0,.11,0,.21-.03.3-.02.09-.03.19-.03.3s0,.22-.02.32c-.02.11-.03.21-.03.3v1.17c0,.58.02,1.08.05,1.52.07.65.22,1.17.45,1.57.2.4.49.67.86.81l.45.05c.5,0,1.06-.2,1.67-.6.77-.51,1.6-1.28,2.47-2.33.98-1.12,1.87-2.35,2.67-3.69.1-.11.23-.16.38-.16s.26.06.33.19c.07.13.05.26-.05.41-.84,1.37-1.77,2.64-2.78,3.79-.94,1.12-1.82,1.95-2.62,2.49-.5.33-1,.58-1.49.76-.49.18-.95.27-1.39.27-.17,0-.33,0-.48-.03-.15-.02-.29-.04-.43-.08-.14-.04-.27-.09-.4-.16-.13-.07-.27-.16-.4-.27-.98-.61-1.46-2.17-1.46-4.66,0-.51.02-1.07.05-1.68.03-.61.08-1.17.13-1.65.05-.49.09-.99.13-1.52.03-.52.05-.95.05-1.27,0-.29,0-.52-.03-.7-.02-.18-.05-.34-.1-.49-.05-.14-.13-.25-.23-.33-.1-.07-.2-.11-.3-.11-.3,0-.69.45-1.16,1.35-.71,1.34-1.5,3.29-2.37,5.85-.03.11-.08.27-.15.49-.27.87-.48,1.5-.63,1.9-.15.4-.35.84-.58,1.33-.24.49-.47.82-.71,1-.24.18-.5.27-.81.27h-.05c-.94-.04-1.67-1.57-2.17-4.61-.03-.22-.13-.88-.3-2-.57-3.83-1.18-5.75-1.82-5.75h-.1c-.17.07-.35.33-.56.76-.4,1.08-.82,2.76-1.26,5.04-.07.43-.21,1.26-.43,2.49-.22,1.23-.38,2.11-.48,2.66-.17.76-.32,1.32-.45,1.68-.34.87-.86,1.3-1.56,1.3-.81,0-1.4-.61-1.77-1.84-.24-.72-.39-1.68-.45-2.87-.03-.54-.05-1.17-.05-1.9,0-2.78.2-5.09.61-6.94.13-.61.5-.92,1.11-.92.27,0,.51.08.73.24.22.16.33.39.33.68,0,.69-.06,1.46-.18,2.33-.12.87-.23,1.7-.33,2.49-.1.8-.15,1.46-.15,2v.68c0,.24,0,.46.03.68.02.22.02.42.02.6.1,1.12.25,2.01.45,2.66.1.29.2.52.3.7,0,.04.02.07.05.11.07-.11.12-.2.15-.27.13-.36.27-.9.4-1.63.1-.51.26-1.37.48-2.6.22-1.23.38-2.06.48-2.49.44-2.31.86-4.05,1.26-5.2.3-.76.62-1.34.96-1.73.37-.43.77-.67,1.21-.7Z"/>
          <path class="cls-4" d="M150.08,44.35c-3.31,0-7.19-1.2-11.03-3.52l.35-.58c5.75,3.47,11.79,4.37,15.37,2.3,2.44-1.41,3.69-4.13,3.62-7.87h.67c.08,3.98-1.29,6.91-3.95,8.45-1.41.81-3.12,1.21-5.02,1.21Z"/>
          <path class="cls-4" d="M159.05,34.69h-.67c.07-3.73-1.17-6.45-3.58-7.86-3.57-2.08-9.39-1.25-15.18,2.18l-.34-.58c6-3.55,12.08-4.39,15.86-2.18,2.64,1.54,3.99,4.46,3.92,8.44Z"/>
          <path class="cls-4" d="M149.55,41.92c-3.24,0-6.95-1.12-10.51-3.27l.35-.58c5.37,3.24,11.03,4.07,14.76,2.18,2.45-1.24,3.9-3.6,4.19-6.82l.67.06c-.31,3.46-1.89,6-4.55,7.36-1.41.72-3.08,1.07-4.9,1.07Z"/>
          <path class="cls-4" d="M149.39,39.28c-3.28,0-7.02-1.08-10.49-3.18l.35-.58c5.61,3.38,11.88,4.05,15.61,1.67,2.57-1.64,3-4.19,3.09-6.23l.67.03c-.1,2.2-.57,4.96-3.4,6.77-1.59,1.02-3.61,1.51-5.83,1.51Z"/>
          <path class="cls-4" d="M149.4,36.55c-3.39,0-7.16-1.12-10.52-3.14l.35-.58c3.66,2.21,7.8,3.3,11.35,3,4.31-.37,6.95-2.91,6.71-6.49l.67-.04c.26,3.92-2.68,6.82-7.33,7.21-.41.03-.82.05-1.24.05Z"/>
          <path class="cls-4" d="M149.37,33.98c-3.32,0-7.13-.98-10.31-2.92l.35-.57c5.81,3.56,14.17,3.78,16.57.42.59-.83.7-1.84.28-2.7l.6-.3c.53,1.08.41,2.35-.33,3.38-1.28,1.79-3.99,2.68-7.16,2.68Z"/>
          <path class="cls-4" d="M149.42,31.81c-3.33,0-7.17-.99-10.36-2.94l.35-.57c5.83,3.57,14.19,3.81,16.58.47.22-.31.29-.6.21-.92l.66-.15c.12.51,0,1-.32,1.46-1.27,1.78-3.96,2.66-7.11,2.66Z"/>
          <path class="cls-4" d="M141.74,30.09l-.34-.58c5.12-2.95,11.98-3.63,15.31-1.5l-.38.55.22-.26-.17.29c-2.77-1.77-9.3-1.58-14.64,1.5Z"/>
          <path class="cls-4" d="M144.02,31.01l-.27-.62c4.33-1.9,9.29-2.47,12.35-1.43l-.22.64c-2.91-.99-7.68-.43-11.86,1.41Z"/>
          <path class="cls-4" d="M119.39,34.45c-.08-4,1.29-6.93,3.95-8.47,3.85-2.22,9.99-1.34,16.04,2.31l-.35.58c-5.75-3.47-11.78-4.37-15.36-2.3-2.44,1.41-3.69,4.13-3.62,7.87h-.67Z"/>
          <path class="cls-4" d="M128.33,44.09c-1.91,0-3.62-.4-5.02-1.22-2.64-1.54-3.99-4.46-3.92-8.44h.67c-.07,3.73,1.17,6.45,3.58,7.86,3.57,2.08,9.39,1.25,15.19-2.18l.34.58c-3.78,2.24-7.6,3.4-10.85,3.4Z"/>
          <path class="cls-4" d="M120.12,35.69l-.67-.06c.31-3.46,1.88-6,4.55-7.35,3.94-2,9.85-1.15,15.42,2.2l-.35.58c-5.37-3.24-11.03-4.07-14.76-2.18-2.45,1.24-3.89,3.6-4.18,6.81Z"/>
          <path class="cls-4" d="M120.49,38.15l-.67-.03c.1-2.2.57-4.96,3.4-6.77,3.94-2.52,10.5-1.85,16.32,1.66l-.35.58c-5.61-3.38-11.88-4.06-15.61-1.67-2.57,1.64-3,4.19-3.09,6.23Z"/>
          <path class="cls-4" d="M120.49,39.83c-.26-3.92,2.68-6.82,7.33-7.21,3.69-.31,7.98.81,11.75,3.09l-.35.58c-3.66-2.21-7.79-3.3-11.35-3-4.31.36-6.95,2.91-6.71,6.49l-.67.04Z"/>
          <path class="cls-4" d="M121.59,41.21c-.53-1.08-.41-2.35.33-3.39,2.62-3.67,11.27-3.55,17.47.25l-.35.57c-5.82-3.57-14.18-3.78-16.57-.43-.59.83-.7,1.84-.27,2.7l-.6.3Z"/>
          <path class="cls-4" d="M121.6,41.43c-.12-.51,0-1,.32-1.46,2.61-3.66,11.27-3.52,17.48.28l-.35.57c-5.83-3.58-14.2-3.81-16.58-.47-.22.31-.29.6-.21.92l-.66.15Z"/>
          <path class="cls-4" d="M127,42.36c-2.1,0-3.96-.41-5.28-1.25l.36-.57c2.74,1.77,9.27,1.58,14.62-1.51l.34.58c-3.1,1.79-6.84,2.74-10.05,2.74Z"/>
          <path class="cls-4" d="M125.93,40.67c-1.34,0-2.57-.17-3.59-.52l.22-.64c2.91.99,7.68.43,11.86-1.41l.27.62c-2.89,1.27-6.06,1.95-8.76,1.95Z"/>
          <path class="cls-4" d="M163.7,30.45c-.13.38-.28.75-.43,1.12-.76,1.83-1.72,3.42-2.51,4.75-.74,1.19-1.59,2.28-2.53,3.28-.94.99-1.59,1.63-1.95,1.91-.36.28-.64.48-.85.59-.17.13-.19.28-.07.47.12.19.28.21.47.07l.29-.21c.2-.14.48-.37.86-.67.38-.31.79-.68,1.23-1.11.45-.43.92-1.01,1.48-1.68,1.29-1.53,2.75-4.08,2.9-4.32.83-1.37,1.44-2.78,1.87-4.15l-.77-.04Z"/>
          <path class="cls-4" d="M121.87,40.6c-1.46,1.44-2.88,2.16-4.27,2.16h-.43c-.98-.11-1.84-.63-2.6-1.57-.69-.87-1.25-2.08-1.68-3.63-.14-.51-.29-1.12-.43-1.84,1.59-2.09,2.96-4.52,4.12-7.26,1.16-2.75,2-5.44,2.55-8.08.18-.94.32-1.82.41-2.66.09-.83.14-1.61.14-2.33,0-.25,0-.49-.03-.71-.02-.22-.03-.43-.03-.65-.11-1.12-.43-2.05-.98-2.79-.54-.74-1.25-1.11-2.11-1.11h-.22c-1.26.11-2.41,1.17-3.44,3.2-1.03,2.02-1.82,4.51-2.38,7.45-.56,2.95-.84,5.95-.84,9.02,0,1.08.05,2.15.16,3.2.43,5.85,1.88,9.36,4.33,10.51.69.33,1.43.49,2.22.49s1.7-.19,2.6-.57c.9-.38,1.74-.87,2.52-1.46.14-.11.26-.23.39-.35v-1.03ZM112.05,32.22c-.05-.81-.08-1.65-.08-2.52v-.62c0-.2,0-.4.03-.6.02-.2.03-.41.03-.62s0-.42.03-.62c.02-.2.03-.41.03-.62.29-4.12.98-7.66,2.06-10.62.51-1.44,1.06-2.53,1.68-3.25.51-.65,1.01-.98,1.52-.98.07-.04.14-.04.22,0,.29.04.54.24.76.6.25.4.41.98.49,1.73,0,.15,0,.29.03.43.02.14.03.29.03.43v.43c0,.33,0,.68-.03,1.06-.02.38-.05.78-.11,1.19-.05.42-.12.84-.19,1.27-.07.43-.14.87-.22,1.3-.51,2.42-1.27,4.91-2.3,7.48-1.03,2.57-2.27,4.88-3.71,6.94-.11-.8-.19-1.6-.24-2.41Z"/>
          <path class="cls-4" d="M28.53,32.04s2.76-.6,3.42-.94c.24-.12.43-.33.51-.67.06-.31-.06-.54-.27-.61-.17-.05.39-1,.39-1l.27.31s.2.26.32.56c.06.16.14.47.1.85-.03.33-.13.55-.35.85-.28.38-.55.51-.79.63-.25.13-.71.27-.71.27l-.44-.21-.79-.2.4-.4-2.03.55Z"/>
          <path class="cls-4" d="M31.41,32.29l-.3-.81-.07-.05s-.04-.03-.08-.02c-.58.12-.93.19-1.67.4-.88.24-1.92.62-3.12,1.13-1.19.51-2.36,1.07-3.51,1.69-.62-1.28-1.51-2.3-2.68-3.05-1.17-.75-2.42-1.13-3.75-1.13-.4,0-.82.04-1.26.13,2.39-2.74,4.24-5.65,5.57-8.72,1.33-3.07,2.14-6.04,2.45-8.92.04-.4.08-.78.1-1.16.02-.38.03-.74.03-1.09,0-2.12-.33-3.96-.99-5.5-.88-2.3-2.3-3.69-4.24-4.18-.49-.09-.95-.11-1.39-.07-1.41.09-2.74.82-3.98,2.19-1.64,1.81-3.07,4.58-4.31,8.29-2.34,7.12-3.51,16.31-3.51,27.59,0,.88.02,1.77.07,2.65-.35-.97-.64-2.14-.86-3.52-.53-2.96-.84-6.37-.93-10.21v-1.39c0-9.02,1.21-17.33,3.65-24.93.04-.13.07-.27.07-.4,0-.35-.16-.64-.46-.86-.31-.22-.66-.33-1.06-.33-.31,0-.61.08-.89.23-.29.16-.5.41-.63.76-1.02,2.7-1.88,6.49-2.58,11.37-.71,4.89-1.06,9.76-1.06,14.62,0,8.22,1.02,14.23,3.05,18.04.27.53.66.8,1.19.8.27,0,.53-.04.8-.13.27-.13.46-.36.6-.7.13-.33.18-.63.13-.89v-.07c-.04-1.72-.07-3.4-.07-5.04,0-11.18,1.17-20.29,3.51-27.32,1.15-3.54,2.5-6.17,4.04-7.89.44-.53.89-.92,1.36-1.16.46-.24.92-.36,1.36-.36.53,0,1.03.17,1.49.5.46.33.88.76,1.26,1.29.37.53.7,1.15.96,1.86.44,1.24.66,2.79.66,4.64v.43c0,.15-.01.3-.03.43-.02.13-.03.27-.03.4v.73c-.22,2.83-1.03,5.77-2.42,8.82-1.39,3.05-3.37,5.81-5.93,8.29-.35.35-.53.8-.53,1.33,0,.31.09.57.27.8.44.58,1.06.69,1.86.33h.07c.8-.44,1.57-.66,2.32-.66.62,0,1.2.14,1.76.43.55.29,1.05.7,1.49,1.23.62.71,1.08,1.59,1.39,2.65-.44.26-.84.51-1.19.73-5.26,3.49-8.62,6.9-10.07,10.21-.44,1.19-.66,2.25-.66,3.18,0,1.9.77,3.12,2.32,3.65.49.13.97.2,1.46.2,1.02,0,2.06-.3,3.15-.9,1.08-.6,2.08-1.42,2.98-2.45.9-1.04,1.73-2.19,2.49-3.45.75-1.26,1.34-2.63,1.76-4.11.42-1.48.63-2.88.63-4.21,0-.35-.02-.7-.07-1.03-.04-.33-.09-.66-.13-1-.04-.33-.13-.65-.27-.96,1.81-1.02,3.68-1.83,5.6-2.45,1.23-.39,1.91-.58,2.88-.87ZM20.81,39.92c-.57,3.14-2.01,6.03-4.31,8.69-1.06,1.24-2.1,2.12-3.12,2.65-.62.31-1.19.46-1.72.46-.35,0-.66-.07-.93-.2-.58-.27-.93-.75-1.06-1.46-.04-.18-.07-.38-.07-.6,0-.71.2-1.5.6-2.39,1.37-3.14,4.6-6.39,9.68-9.75.18-.13.49-.31.93-.53.04.27.08.53.1.8.02.27.03.53.03.8,0,.53-.04,1.04-.13,1.53Z"/>
          <path class="cls-4" d="M50.02,35.49c-.09-.13-.22-.17-.38-.14-.16.04-.28.13-.35.27-.79,1.66-1.72,3.95-2.76,6.86-1.05,2.91-1.59,4.4-1.63,4.47-.58,1.52-1.08,2.57-1.52,3.14-.25.33-.49.56-.7.71-.22.11-.43.14-.65.11-.54-.07-.96-.52-1.25-1.35-.29-.94-.43-2.39-.43-4.34v-1.03c.04-1.7.25-3.87.65-6.5.04-.25.08-.55.14-.89.05-.34.1-.65.14-.92.04-.27.07-.5.11-.68.11-.76.14-1.26.11-1.52-.04-.4-.19-.72-.46-.98-.27-.25-.61-.38-1-.38h-.05c-.83,0-1.66.45-2.49,1.35-.33.36-.81.96-1.46,1.79-.65.83-1.14,1.43-1.46,1.79-.54.61-1.03,1.05-1.46,1.3-.47.25-.9.34-1.3.27-.47-.11-.83-.58-1.08-1.41-.07-.29-.14-.61-.19-.98-.05-.36-.08-.74-.08-1.14v-.81c.14-1.77.52-3.14,1.14-4.12.22-.36.4-.54.54-.54.07,0,.14,0,.21.08.11.11.24.34.39.63.09.19.25.25.45.21v-1.06c-.4-.95-1.18-1.55-2.09-1.52-.46.01-.73.16-.73.16-.32.15-.58.37-.85.82-.27.45-.51.99-.7,1.63-.2.63-.35,1.33-.46,2.09-.11.76-.16,1.52-.16,2.28,0,2.85.69,4.53,2.06,5.04.29.07.56.11.81.11,1.19,0,2.56-.83,4.12-2.49.36-.4.87-1.02,1.52-1.87.65-.85,1.12-1.42,1.41-1.71.25-.29.45-.45.6-.49.25-.11.38-.02.38.27,0,.11-.09.79-.27,2.03-.18,1.25-.35,2.72-.51,4.42-.16,1.7-.24,3.27-.24,4.72,0,4.63.9,7.08,2.71,7.37h.49c.25,0,.5-.04.73-.11.23-.07.48-.19.73-.35.25-.16.5-.38.73-.65.23-.27.48-.6.73-.98.25-.38.51-.84.76-1.38.25-.54.51-1.14.76-1.79.25-.61.62-1.63,1.11-3.06.49-1.43,1-2.85,1.54-4.28.54-1.43,1.8-4.32,1.71-4.44Z"/>
        </g>
        <g>
          <path class="cls-4" d="M50.54,48.35l1.15,4.43h.01l1.23-4.43h.6l1.24,4.43h.01l1.16-4.43h.48l-1.4,5.07h-.51l-1.28-4.53h-.01l-1.28,4.53h-.52l-1.4-5.07h.52Z"/>
          <path class="cls-4" d="M58.46,52.21c.04.17.12.33.22.46.1.14.22.25.38.34.15.09.33.13.55.13.33,0,.58-.08.77-.26.18-.17.31-.4.38-.68h.45c-.09.42-.27.74-.52.96-.25.23-.61.34-1.07.34-.29,0-.54-.05-.75-.15-.21-.1-.38-.24-.51-.42-.13-.18-.23-.38-.29-.62-.06-.23-.1-.48-.1-.74,0-.24.03-.48.1-.71.06-.23.16-.44.29-.62.13-.18.3-.33.51-.44.21-.11.46-.17.75-.17s.54.06.75.18c.21.12.38.27.51.46.13.19.22.41.28.66.06.25.08.5.07.76h-2.82c0,.16.02.33.07.5ZM60.67,50.84c-.05-.16-.13-.29-.23-.41-.1-.12-.22-.22-.36-.29-.14-.07-.3-.11-.48-.11s-.35.04-.49.11-.26.17-.36.29c-.1.12-.18.26-.24.42-.06.16-.1.32-.12.49h2.37c0-.17-.03-.33-.09-.49Z"/>
          <path class="cls-4" d="M63.28,50.32c.08-.16.18-.28.31-.38.13-.1.28-.17.46-.22.17-.05.37-.07.58-.07.16,0,.32.02.48.05.16.03.3.09.43.17.13.08.23.2.31.36.08.15.12.35.12.6v1.94c0,.18.09.27.26.27.05,0,.1,0,.14-.03v.38c-.05,0-.1.02-.14.02-.04,0-.09,0-.15,0-.11,0-.2-.02-.27-.05-.07-.03-.12-.07-.16-.13-.04-.06-.06-.12-.07-.2-.01-.08-.02-.16-.02-.26h-.01c-.08.12-.16.22-.24.32-.08.09-.18.17-.28.23-.1.06-.22.11-.35.14-.13.03-.28.05-.46.05-.17,0-.33-.02-.48-.06s-.28-.1-.39-.19c-.11-.09-.2-.2-.26-.33-.06-.13-.1-.29-.1-.48,0-.26.06-.46.17-.6.11-.14.26-.25.45-.33.19-.08.4-.13.63-.16.23-.03.47-.06.71-.09.09,0,.18-.02.25-.04s.13-.04.18-.07.08-.08.11-.15.04-.14.04-.24c0-.15-.02-.28-.07-.37s-.12-.17-.21-.23c-.09-.06-.19-.1-.3-.12-.12-.02-.24-.03-.37-.03-.28,0-.52.07-.7.2s-.27.35-.28.65h-.45c.01-.21.06-.4.13-.55ZM65.51,51.42c-.03.05-.08.09-.16.11-.08.02-.15.04-.21.05-.19.03-.38.06-.59.09-.2.03-.38.06-.55.12s-.3.13-.41.22c-.11.1-.16.24-.16.41,0,.11.02.21.07.3s.11.16.18.23c.08.06.16.11.26.15.1.03.2.05.3.05.17,0,.33-.03.49-.08.16-.05.29-.13.41-.23.12-.1.21-.22.28-.36s.1-.3.1-.48v-.58h-.01Z"/>
          <path class="cls-4" d="M68.33,49.76l1.15,3.21h.01l1.13-3.21h.46l-1.37,3.66h-.48l-1.41-3.66h.5Z"/>
          <path class="cls-4" d="M73.36,48.35v.72h-.45v-.72h.45ZM73.36,49.76v3.66h-.45v-3.66h.45Z"/>
          <path class="cls-4" d="M76.03,49.76v.63h.01c.09-.22.24-.4.45-.54s.46-.2.72-.2.47.03.64.1.31.16.41.28c.1.12.18.27.22.44.04.18.06.37.06.59v2.36h-.45v-2.28c0-.16-.01-.3-.04-.44-.03-.13-.08-.25-.15-.35s-.17-.18-.29-.23c-.12-.06-.27-.08-.45-.08s-.34.03-.48.1-.26.15-.35.26c-.1.11-.17.24-.23.4-.05.15-.08.32-.09.5v2.14h-.45v-3.66h.45Z"/>
          <path class="cls-4" d="M83.78,53.85c-.06.22-.15.4-.28.55-.13.15-.29.27-.5.35s-.46.12-.76.12c-.18,0-.36-.02-.54-.06-.18-.04-.33-.11-.47-.2s-.26-.2-.35-.34c-.09-.14-.15-.31-.16-.5h.45c.02.14.07.25.14.34.07.09.15.17.25.22.1.06.2.1.32.12.12.03.24.04.36.04.42,0,.72-.12.9-.35.18-.24.28-.58.28-1.02v-.5h-.01c-.1.23-.26.41-.46.55-.2.14-.44.21-.71.21-.29,0-.54-.05-.75-.15-.21-.1-.38-.23-.51-.4-.13-.17-.23-.37-.29-.6-.06-.23-.09-.47-.09-.73s.04-.49.11-.71c.07-.22.18-.42.32-.59.14-.17.31-.3.52-.4s.44-.15.71-.15c.14,0,.27.02.39.06.12.04.23.09.33.16.1.07.19.15.27.24.08.09.14.18.18.28h.01v-.63h.45v3.36c0,.27-.03.51-.09.73ZM82.75,52.87c.15-.08.27-.19.37-.33.1-.13.17-.29.22-.46s.07-.36.07-.54-.02-.36-.06-.54c-.04-.18-.11-.34-.21-.49-.09-.15-.22-.26-.37-.35s-.33-.13-.54-.13-.39.04-.55.13-.28.2-.38.34c-.1.14-.17.3-.22.49s-.07.37-.07.56.02.36.07.54.12.33.22.46c.1.13.22.24.38.33.15.08.33.12.54.12.19,0,.36-.04.51-.12Z"/>
          <path class="cls-4" d="M88.95,48.35h.57l1.67,2.57,1.66-2.57h.57l-2,2.98v2.09h-.48v-2.09l-1.99-2.98Z"/>
          <path class="cls-4" d="M96.78,49.8c.22.1.4.24.54.42s.26.38.33.61c.08.23.11.48.11.75s-.04.51-.11.75c-.08.23-.19.44-.33.61s-.33.31-.54.41c-.22.1-.46.15-.74.15s-.53-.05-.74-.15c-.22-.1-.4-.24-.54-.41s-.26-.38-.33-.61c-.08-.23-.11-.48-.11-.75s.04-.51.11-.75c.08-.23.19-.44.33-.61s.33-.31.54-.42c.21-.1.46-.16.74-.16s.53.05.74.16ZM95.48,50.16c-.16.09-.29.21-.4.35-.11.15-.19.31-.24.5-.05.19-.08.38-.08.57s.03.38.08.57c.05.19.13.35.24.5.11.15.24.26.4.35.16.09.35.13.56.13s.4-.04.56-.13c.16-.09.29-.21.4-.35s.19-.31.24-.5.08-.38.08-.57-.03-.38-.08-.57c-.05-.19-.13-.35-.24-.5-.11-.15-.24-.26-.4-.35-.16-.09-.35-.13-.56-.13s-.4.05-.56.13Z"/>
          <path class="cls-4" d="M102.37,53.42v-.66h-.01c-.12.25-.29.43-.51.56s-.47.2-.75.2c-.23,0-.43-.03-.59-.1-.16-.06-.3-.15-.4-.27-.1-.12-.18-.26-.22-.43s-.07-.36-.07-.58v-2.38h.45v2.38c0,.33.09.58.23.75.14.17.39.26.75.26.19,0,.36-.04.5-.12s.25-.19.34-.33.16-.29.2-.47c.04-.18.06-.36.06-.54v-1.92h.45v3.66h-.41Z"/>
          <path class="cls-4" d="M105.41,49.76v.86h.01c.11-.3.29-.53.53-.69s.52-.23.85-.22v.45c-.2,0-.39.02-.55.08-.17.06-.31.15-.43.27-.12.12-.21.26-.28.42-.07.16-.1.34-.1.54v1.95h-.45v-3.66h.41Z"/>
          <path class="cls-4" d="M114.18,48.35c.21,0,.42.02.61.06s.37.11.52.21c.15.1.27.22.36.38.09.16.13.36.13.59,0,.13-.02.26-.06.39-.04.13-.1.24-.18.34-.08.1-.17.19-.28.26-.11.07-.23.12-.36.15h0c.33.06.59.19.78.41.19.22.29.5.29.83,0,.08,0,.17-.02.27-.01.1-.04.21-.08.31-.04.11-.1.21-.18.32-.08.1-.19.2-.32.27-.13.08-.3.14-.5.19s-.43.07-.71.07h-2.14v-5.07h2.14ZM114.18,50.57c.19,0,.36-.02.5-.07.14-.05.26-.11.35-.18.09-.08.17-.17.21-.27s.07-.22.07-.33c0-.63-.38-.95-1.14-.95h-1.66v1.81h1.66ZM114.18,53c.18,0,.35-.02.51-.05.16-.03.3-.09.43-.17.12-.08.22-.19.29-.32.07-.13.11-.3.11-.51,0-.33-.11-.57-.34-.73-.23-.16-.56-.25-.99-.25h-1.66v2.02h1.66Z"/>
          <path class="cls-4" d="M118.47,49.76v.86h.01c.11-.3.29-.53.53-.69s.52-.23.85-.22v.45c-.2,0-.39.02-.55.08-.17.06-.31.15-.43.27-.12.12-.21.26-.28.42-.07.16-.1.34-.1.54v1.95h-.45v-3.66h.41Z"/>
          <path class="cls-4" d="M121.76,50.32c.08-.16.18-.28.31-.38.13-.1.28-.17.46-.22s.37-.07.58-.07c.16,0,.32.02.48.05.16.03.3.09.43.17.13.08.23.2.31.36.08.15.12.35.12.6v1.94c0,.18.09.27.26.27.05,0,.1,0,.14-.03v.38c-.05,0-.1.02-.14.02s-.09,0-.15,0c-.11,0-.2-.02-.27-.05-.07-.03-.12-.07-.16-.13-.04-.06-.06-.12-.07-.2-.01-.08-.02-.16-.02-.26h-.01c-.08.12-.16.22-.24.32-.08.09-.18.17-.28.23-.1.06-.22.11-.35.14-.13.03-.29.05-.46.05-.17,0-.33-.02-.48-.06s-.28-.1-.39-.19c-.11-.09-.2-.2-.26-.33-.06-.13-.1-.29-.1-.48,0-.26.06-.46.17-.6.11-.14.26-.25.45-.33.19-.08.4-.13.63-.16.23-.03.47-.06.71-.09.09,0,.18-.02.25-.04.07-.01.13-.04.18-.07s.08-.08.11-.15.04-.14.04-.24c0-.15-.03-.28-.07-.37s-.12-.17-.21-.23c-.09-.06-.19-.1-.31-.12-.12-.02-.24-.03-.37-.03-.28,0-.52.07-.69.2-.18.13-.27.35-.28.65h-.45c.01-.21.06-.4.13-.55ZM124,51.42c-.03.05-.08.09-.16.11-.08.02-.15.04-.21.05-.19.03-.38.06-.58.09-.2.03-.38.06-.55.12-.17.05-.3.13-.41.22s-.16.24-.16.41c0,.11.02.21.07.3.04.09.1.16.18.23.08.06.16.11.26.15s.2.05.3.05c.17,0,.33-.03.49-.08.16-.05.29-.13.41-.23s.21-.22.28-.36.1-.3.1-.48v-.58h-.01Z"/>
          <path class="cls-4" d="M127.17,49.76v.63h.01c.09-.22.24-.4.45-.54s.46-.2.72-.2.47.03.64.1c.17.07.31.16.41.28.1.12.18.27.22.44.04.18.06.37.06.59v2.36h-.45v-2.28c0-.16-.01-.3-.04-.44s-.08-.25-.15-.35c-.07-.1-.17-.18-.29-.23-.12-.06-.27-.08-.45-.08s-.34.03-.48.1c-.14.06-.26.15-.35.26-.1.11-.17.24-.23.4-.05.15-.08.32-.09.5v2.14h-.45v-3.66h.45Z"/>
          <path class="cls-4" d="M134.72,53.42v-.7h-.01c-.05.12-.12.23-.21.33-.09.1-.2.18-.32.25-.12.07-.24.12-.38.16-.13.04-.27.06-.4.06-.28,0-.52-.05-.73-.15-.21-.1-.38-.24-.51-.42-.14-.18-.24-.38-.3-.62-.07-.23-.1-.48-.1-.74s.03-.51.1-.74c.07-.23.17-.44.3-.62.14-.18.31-.32.51-.42.21-.1.45-.16.73-.16.14,0,.27.02.4.05.13.03.25.08.37.15.11.07.21.15.3.25.09.1.15.22.2.35h.01v-2.1h.45v5.07h-.41ZM132.27,52.15c.04.19.12.35.21.5.1.15.22.27.37.36.15.09.33.14.55.14.24,0,.44-.05.6-.14.16-.09.3-.21.4-.36.1-.15.18-.31.22-.5s.07-.37.07-.56-.02-.38-.07-.56c-.05-.19-.12-.35-.22-.5-.1-.15-.23-.27-.4-.36-.16-.09-.36-.14-.6-.14-.21,0-.39.05-.55.14-.15.09-.28.21-.37.36-.1.15-.17.31-.21.5-.05.19-.07.38-.07.56s.02.38.07.56Z"/>
          <path class="cls-4" d="M138.14,48.35v1.72h-.45v-1.72h.45Z"/>
          <path class="cls-4" d="M142.81,50.47c-.05-.1-.12-.19-.21-.25s-.19-.11-.3-.15c-.11-.03-.23-.05-.36-.05-.1,0-.2.01-.3.03-.1.02-.2.06-.28.11-.08.05-.15.11-.21.2s-.08.18-.08.3c0,.1.03.18.07.25.05.07.11.13.19.17s.16.09.25.12c.09.03.17.06.25.07l.6.13c.13.02.25.05.38.1.13.05.24.11.33.2s.18.18.24.3c.06.12.09.26.09.42,0,.2-.05.37-.13.51-.09.14-.2.25-.34.34s-.3.15-.47.19c-.18.04-.35.06-.52.06-.43,0-.78-.1-1.05-.31s-.42-.53-.46-.98h.45c.02.3.13.53.33.68s.45.23.75.23c.11,0,.22-.01.34-.04.12-.02.22-.06.32-.12.1-.06.18-.13.25-.22.06-.09.1-.2.1-.32,0-.11-.02-.2-.07-.27-.05-.07-.11-.13-.18-.18-.08-.05-.16-.09-.26-.12-.1-.03-.2-.06-.29-.08l-.57-.13c-.15-.04-.28-.08-.4-.13-.12-.05-.23-.11-.32-.18-.09-.07-.16-.16-.22-.27-.05-.11-.08-.24-.08-.39,0-.18.04-.34.12-.48.08-.13.19-.24.32-.32.13-.08.28-.14.44-.18.16-.04.33-.06.49-.06.18,0,.36.02.51.07.16.05.3.12.42.22.12.1.22.22.29.37.07.15.11.32.12.52h-.45c0-.14-.03-.26-.09-.36Z"/>
          <path class="cls-4" d="M149.27,52.4c.08.18.2.31.35.42s.33.18.53.22.42.07.65.07c.13,0,.28-.02.43-.06.16-.04.3-.1.44-.18s.25-.19.34-.32c.09-.13.13-.29.13-.47,0-.14-.03-.26-.1-.37-.06-.1-.15-.19-.25-.26-.1-.07-.21-.13-.34-.17s-.24-.08-.36-.11l-1.13-.28c-.15-.04-.29-.09-.43-.14-.14-.06-.26-.13-.37-.23s-.19-.21-.25-.35-.1-.31-.1-.5c0-.12.02-.27.07-.43.05-.17.14-.32.27-.47.13-.15.31-.27.54-.37.23-.1.52-.15.87-.15.25,0,.49.03.72.1.23.07.43.17.6.3.17.13.31.3.41.49s.15.42.15.68h-.48c0-.19-.05-.36-.13-.51-.08-.14-.18-.26-.3-.36-.13-.1-.27-.17-.43-.22-.16-.05-.33-.07-.51-.07-.17,0-.33.02-.48.05-.15.04-.29.09-.4.17-.12.08-.21.18-.28.31-.07.13-.11.29-.11.48,0,.12.02.22.06.31s.1.16.17.22c.07.06.15.11.24.15s.19.07.29.09l1.23.31c.18.05.35.1.51.17.16.07.3.15.42.26s.21.23.28.37c.07.15.1.32.1.53,0,.06,0,.13-.02.23s-.04.2-.08.3c-.05.11-.11.21-.19.32s-.2.21-.34.29-.32.16-.54.21c-.21.05-.47.08-.77.08s-.57-.03-.83-.1-.47-.17-.65-.32c-.18-.14-.32-.32-.41-.55s-.14-.49-.12-.8h.48c0,.26.04.48.12.65Z"/>
          <path class="cls-4" d="M157.23,53.42v-.66h-.01c-.12.25-.29.43-.51.56s-.47.2-.75.2c-.23,0-.43-.03-.59-.1-.16-.06-.3-.15-.4-.27-.1-.12-.18-.26-.22-.43s-.07-.36-.07-.58v-2.38h.45v2.38c0,.33.09.58.23.75.14.17.39.26.75.26.19,0,.36-.04.5-.12s.25-.19.34-.33.16-.29.2-.47c.04-.18.06-.36.06-.54v-1.92h.45v3.66h-.41Z"/>
          <path class="cls-4" d="M162.11,50.26c-.17-.16-.4-.23-.7-.23-.21,0-.4.05-.56.13-.16.09-.29.21-.4.35-.11.15-.19.31-.24.5-.05.19-.08.38-.08.57s.03.38.08.57.13.35.24.5c.11.15.24.26.4.35.16.09.35.13.56.13.14,0,.27-.03.39-.08.12-.05.23-.12.33-.22.09-.09.17-.2.23-.33s.1-.27.11-.42h.45c-.06.44-.22.79-.49,1.04-.26.25-.6.37-1.02.37-.28,0-.53-.05-.74-.15s-.4-.24-.54-.41c-.15-.18-.26-.38-.33-.61s-.11-.48-.11-.75.04-.51.11-.75c.08-.23.19-.44.33-.61.15-.18.33-.31.54-.42.22-.1.46-.16.74-.16.39,0,.72.1,1,.31.27.21.43.52.49.94h-.45c-.06-.27-.18-.49-.34-.65Z"/>
          <path class="cls-4" d="M167.16,50.26c-.17-.16-.4-.23-.7-.23-.21,0-.4.05-.56.13-.16.09-.29.21-.4.35-.11.15-.19.31-.24.5-.05.19-.08.38-.08.57s.03.38.08.57.13.35.24.5c.11.15.24.26.4.35.16.09.35.13.56.13.14,0,.27-.03.39-.08.12-.05.23-.12.33-.22.09-.09.17-.2.23-.33s.1-.27.11-.42h.45c-.06.44-.22.79-.49,1.04-.26.25-.6.37-1.02.37-.28,0-.53-.05-.74-.15s-.4-.24-.54-.41c-.15-.18-.26-.38-.33-.61s-.11-.48-.11-.75.04-.51.11-.75c.08-.23.19-.44.33-.61.15-.18.33-.31.54-.42.22-.1.46-.16.74-.16.39,0,.72.1,1,.31.27.21.43.52.49.94h-.45c-.06-.27-.18-.49-.34-.65Z"/>
          <path class="cls-4" d="M170.31,52.21c.04.17.12.33.22.46.1.14.22.25.38.34.15.09.33.13.55.13.33,0,.58-.08.77-.26.18-.17.31-.4.38-.68h.45c-.09.42-.27.74-.52.96-.25.23-.61.34-1.07.34-.29,0-.54-.05-.75-.15s-.38-.24-.51-.42c-.13-.18-.23-.38-.29-.62-.06-.23-.1-.48-.1-.74,0-.24.03-.48.1-.71.06-.23.16-.44.29-.62.13-.18.3-.33.51-.44s.46-.17.75-.17.54.06.75.18c.21.12.38.27.51.46s.22.41.28.66c.06.25.08.5.07.76h-2.82c0,.16.02.33.07.5ZM172.52,50.84c-.05-.16-.13-.29-.23-.41-.1-.12-.22-.22-.36-.29s-.3-.11-.48-.11-.35.04-.49.11-.26.17-.36.29-.18.26-.24.42-.1.32-.12.49h2.37c0-.17-.03-.33-.09-.49Z"/>
          <path class="cls-4" d="M177.14,50.47c-.05-.1-.12-.19-.21-.25s-.19-.11-.3-.15c-.11-.03-.23-.05-.36-.05-.1,0-.2.01-.3.03-.1.02-.2.06-.28.11-.08.05-.15.11-.21.2s-.08.18-.08.3c0,.1.03.18.07.25.05.07.11.13.19.17s.16.09.25.12c.09.03.17.06.25.07l.6.13c.13.02.25.05.38.1.13.05.24.11.33.2s.18.18.24.3c.06.12.09.26.09.42,0,.2-.05.37-.13.51-.09.14-.2.25-.34.34s-.3.15-.47.19c-.18.04-.35.06-.52.06-.43,0-.78-.1-1.05-.31s-.42-.53-.46-.98h.45c.02.3.13.53.33.68s.45.23.75.23c.11,0,.22-.01.34-.04.12-.02.22-.06.32-.12.1-.06.18-.13.25-.22.06-.09.1-.2.1-.32,0-.11-.02-.2-.07-.27-.05-.07-.11-.13-.18-.18-.08-.05-.16-.09-.26-.12-.1-.03-.2-.06-.29-.08l-.57-.13c-.15-.04-.28-.08-.4-.13-.12-.05-.23-.11-.32-.18-.09-.07-.16-.16-.22-.27-.05-.11-.08-.24-.08-.39,0-.18.04-.34.12-.48.08-.13.19-.24.32-.32.13-.08.28-.14.44-.18.16-.04.33-.06.49-.06.18,0,.36.02.51.07.16.05.3.12.42.22.12.1.22.22.29.37.07.15.11.32.12.52h-.45c0-.14-.03-.26-.09-.36Z"/>
          <path class="cls-4" d="M181.93,50.47c-.05-.1-.12-.19-.21-.25s-.19-.11-.3-.15c-.11-.03-.23-.05-.36-.05-.1,0-.2.01-.3.03-.1.02-.2.06-.28.11-.08.05-.15.11-.21.2s-.08.18-.08.3c0,.1.03.18.07.25.05.07.11.13.19.17s.16.09.25.12c.09.03.17.06.25.07l.6.13c.13.02.25.05.38.1.13.05.24.11.33.2s.18.18.24.3c.06.12.09.26.09.42,0,.2-.05.37-.13.51-.09.14-.2.25-.34.34s-.3.15-.47.19c-.18.04-.35.06-.52.06-.43,0-.78-.1-1.05-.31s-.42-.53-.46-.98h.45c.02.3.13.53.33.68s.45.23.75.23c.11,0,.22-.01.34-.04.12-.02.22-.06.32-.12.1-.06.18-.13.25-.22.06-.09.1-.2.1-.32,0-.11-.02-.2-.07-.27-.05-.07-.11-.13-.18-.18-.08-.05-.16-.09-.26-.12-.1-.03-.2-.06-.29-.08l-.57-.13c-.15-.04-.28-.08-.4-.13-.12-.05-.23-.11-.32-.18-.09-.07-.16-.16-.22-.27-.05-.11-.08-.24-.08-.39,0-.18.04-.34.12-.48.08-.13.19-.24.32-.32.13-.08.28-.14.44-.18.16-.04.33-.06.49-.06.18,0,.36.02.51.07.16.05.3.12.42.22.12.1.22.22.29.37.07.15.11.32.12.52h-.45c0-.14-.03-.26-.09-.36Z"/>
          <path class="cls-4" d="M188.39,52.4c.08.18.2.31.35.42s.33.18.53.22.42.07.65.07c.13,0,.28-.02.43-.06.16-.04.3-.1.44-.18s.25-.19.34-.32c.09-.13.13-.29.13-.47,0-.14-.03-.26-.1-.37-.06-.1-.15-.19-.25-.26-.1-.07-.21-.13-.34-.17s-.24-.08-.36-.11l-1.13-.28c-.15-.04-.29-.09-.43-.14-.14-.06-.26-.13-.37-.23s-.19-.21-.25-.35-.1-.31-.1-.5c0-.12.02-.27.07-.43.05-.17.14-.32.27-.47.13-.15.31-.27.54-.37.23-.1.52-.15.87-.15.25,0,.49.03.72.1.23.07.43.17.6.3.17.13.31.3.41.49s.15.42.15.68h-.48c0-.19-.05-.36-.13-.51-.08-.14-.18-.26-.3-.36-.13-.1-.27-.17-.43-.22-.16-.05-.33-.07-.51-.07-.17,0-.33.02-.48.05-.15.04-.29.09-.4.17-.12.08-.21.18-.28.31-.07.13-.11.29-.11.48,0,.12.02.22.06.31s.1.16.17.22c.07.06.15.11.24.15s.19.07.29.09l1.23.31c.18.05.35.1.51.17.16.07.3.15.42.26s.21.23.28.37c.07.15.1.32.1.53,0,.06,0,.13-.02.23s-.04.2-.08.3c-.05.11-.11.21-.19.32s-.2.21-.34.29-.32.16-.54.21c-.21.05-.47.08-.77.08s-.57-.03-.83-.1-.47-.17-.65-.32c-.18-.14-.32-.32-.41-.55s-.14-.49-.12-.8h.48c0,.26.04.48.12.65Z"/>
          <path class="cls-4" d="M195.25,49.76v.38h-.74v2.47c0,.15.02.26.06.34.04.08.14.13.3.14.13,0,.26,0,.38-.02v.38c-.07,0-.13,0-.2,0-.07,0-.13,0-.2,0-.3,0-.51-.06-.62-.17-.12-.12-.18-.33-.17-.64v-2.5h-.64v-.38h.64v-1.1h.45v1.1h.74Z"/>
          <path class="cls-4" d="M199.56,49.8c.22.1.4.24.54.42.15.18.26.38.33.61.08.23.11.48.11.75s-.04.51-.11.75c-.08.23-.19.44-.33.61-.15.18-.33.31-.54.41s-.46.15-.74.15-.53-.05-.74-.15-.4-.24-.54-.41c-.15-.18-.26-.38-.33-.61s-.11-.48-.11-.75.04-.51.11-.75c.08-.23.19-.44.33-.61.15-.18.33-.31.54-.42.22-.1.46-.16.74-.16s.53.05.74.16ZM198.26,50.16c-.16.09-.29.21-.4.35-.11.15-.19.31-.24.5-.05.19-.08.38-.08.57s.03.38.08.57.13.35.24.5c.11.15.24.26.4.35.16.09.35.13.56.13s.4-.04.56-.13c.16-.09.29-.21.4-.35.11-.15.19-.31.24-.5s.08-.38.08-.57-.03-.38-.08-.57c-.05-.19-.13-.35-.24-.5-.11-.15-.24-.26-.4-.35s-.35-.13-.56-.13-.4.05-.56.13Z"/>
          <path class="cls-4" d="M203,49.76v.86h.01c.11-.3.29-.53.53-.69s.52-.23.85-.22v.45c-.2,0-.39.02-.55.08-.17.06-.31.15-.43.27-.12.12-.21.26-.28.42-.07.16-.1.34-.1.54v1.95h-.45v-3.66h.41Z"/>
          <path class="cls-4" d="M206.26,49.76l1.21,3.12,1.13-3.12h.45l-1.59,4.21c-.07.16-.13.28-.18.39-.06.1-.12.18-.19.24-.07.06-.15.1-.24.13-.09.03-.21.04-.35.04-.09,0-.16,0-.21-.01-.05,0-.09-.01-.13-.03v-.38c.05,0,.1.02.15.03s.1.01.15.01c.1,0,.18-.01.24-.04.06-.03.12-.07.17-.12s.09-.11.12-.18c.03-.07.07-.15.11-.23l.16-.41-1.46-3.65h.48Z"/>
        </g>
      </g>
      <g class="cls-2">
        <path class="cls-4" d="M226.39,26.45h-34.24c-1.73,0-3.13,1.4-3.13,3.13v10.33c0,1.73,1.4,3.13,3.13,3.13h22.61l-2.7,10.38,7.97-10.38h6.37c1.73,0,3.13-1.4,3.13-3.13v-10.33c0-1.73-1.4-3.13-3.13-3.13Z"/>
      </g>
    </g>
  </g>
</svg>