<?xml version="1.0" encoding="UTF-8"?>
<svg id="Layer_2" data-name="Layer 2" xmlns="http://www.w3.org/2000/svg" viewBox="0 0 165.58 109.37">
  <defs>
    <style>
      .cls-1 {
        fill: #1a1b21;
      }
    </style>
  </defs>
  <g id="Layer_1-2" data-name="Layer 1">
    <g>
      <path class="cls-1" d="M114.97,107.29c-13.37-3.97-27.63-13.49-40.39-27.46l2.1-1.91c19.11,20.93,42.42,31.82,59.37,27.74,11.55-2.78,19.87-12.28,24.06-27.47l2.74.75c-4.48,16.26-13.51,26.45-26.13,29.48-6.66,1.6-14.05,1.15-21.74-1.13Z"/>
      <path class="cls-1" d="M162.83,78.99l-2.7-.86c4.75-14.96,2.99-27.41-5.09-36.01-11.95-12.72-36.47-16.32-64-9.41l-.69-2.76c28.53-7.16,54.11-3.25,66.76,10.22,8.82,9.39,10.81,22.82,5.72,38.81Z"/>
      <path class="cls-1" d="M115.72,96.84c-13.1-3.89-26.75-12.86-38.6-25.84l2.1-1.91c17.83,19.54,39.71,29.7,57.08,26.51,11.4-2.09,20.08-9.88,25.1-22.54l2.64,1.05c-5.41,13.61-14.82,22.01-27.23,24.28-6.58,1.2-13.75.62-21.09-1.55Z"/>
      <path class="cls-1" d="M118.25,85.99c-13.28-3.94-27.07-12.8-38.6-25.43l2.1-1.91c18.62,20.41,43.18,30.65,61.11,25.49,12.37-3.56,17.17-13.36,19.97-21.5l2.69.92c-3.03,8.79-8.25,19.38-21.88,23.3-7.65,2.2-16.4,1.79-25.39-.88Z"/>
      <path class="cls-1" d="M121.55,74.96c-13.71-4.07-27.6-13.1-38.77-25.33l2.1-1.91c12.15,13.31,27.57,22.69,42.3,25.73,17.88,3.7,31.59-3.45,34.92-18.21l2.77.63c-3.65,16.16-19.02,24.34-38.26,20.36-1.68-.35-3.36-.77-5.06-1.27Z"/>
      <path class="cls-1" d="M124.52,64.5c-13.42-3.98-27.68-12.52-38.17-24.18l2.11-1.9c19.23,21.39,52.79,32.28,66.48,21.58,3.4-2.66,5.03-6.61,4.34-10.57l2.8-.48c.86,5.01-1.16,9.97-5.39,13.29-7.32,5.72-19.37,6.06-32.17,2.27Z"/>
      <path class="cls-1" d="M127.31,55.81c-13.48-4-27.82-12.6-38.38-24.34l2.11-1.9c19.29,21.44,52.83,32.44,66.47,21.78,1.25-.98,1.88-2.08,1.97-3.48l2.83.18c-.14,2.2-1.16,4.07-3.05,5.54-7.26,5.67-19.22,6-31.94,2.23Z"/>
      <path class="cls-1" d="M98.31,39.63l-.66-2.76c24.23-5.81,52.79-.29,63.69,12.3l-2.19,1.78,1.18-.79-1.04.97c-9.1-10.5-35.7-17.56-60.98-11.5Z"/>
      <path class="cls-1" d="M106.46,46.11l-.36-2.82c19.78-2.49,40.55,1.15,51.65,9.03l-1.64,2.32c-10.57-7.51-30.53-10.93-49.66-8.53Z"/>
      <path class="cls-1" d="M2.74,30.45C7.22,14.18,16.26,3.98,28.88.95c18.22-4.37,42.02,6.58,62.1,28.57l-2.1,1.91C69.79,10.53,46.5-.36,29.54,3.71,17.99,6.49,9.66,15.99,5.47,31.2l-2.74-.75Z"/>
      <path class="cls-1" d="M27.33,80.16c-7.72-2.29-14.17-5.96-18.85-10.94C-.35,59.82-2.33,46.39,2.75,30.39l2.7.86c-4.75,14.96-2.99,27.41,5.09,36.01,11.95,12.72,36.48,16.32,64.02,9.39l.69,2.76c-17.98,4.52-34.79,4.64-47.93.74Z"/>
      <path class="cls-1" d="M4.19,36.32l-2.64-1.05c5.4-13.61,14.81-22,27.21-24.27,18.32-3.35,41.2,7.15,59.69,27.41l-2.1,1.91C68.51,20.78,46.64,10.62,29.27,13.8c-11.39,2.09-20.06,9.87-25.08,22.52Z"/>
      <path class="cls-1" d="M2.75,46.74l-2.69-.92c3.03-8.79,8.25-19.38,21.88-23.3,18.94-5.45,44.66,5.12,63.99,26.31l-2.1,1.91c-18.62-20.41-43.17-30.65-61.11-25.49-12.37,3.56-17.17,13.36-19.97,21.5Z"/>
      <path class="cls-1" d="M.72,53.51c3.65-16.16,19.02-24.34,38.26-20.36,15.32,3.16,31.28,12.86,43.82,26.6l-2.1,1.91c-12.15-13.31-27.57-22.68-42.3-25.73-17.88-3.7-31.58,3.45-34.92,18.21l-2.77-.63Z"/>
      <path class="cls-1" d="M3.5,60.44c-.86-5.01,1.16-9.98,5.39-13.29,15-11.71,49.83-.84,70.33,21.95l-2.11,1.9C57.86,49.59,24.32,38.69,10.65,49.38c-3.4,2.66-5.03,6.61-4.34,10.57l-2.8.48Z"/>
      <path class="cls-1" d="M3.28,61.33c.14-2.2,1.17-4.07,3.05-5.54,14.96-11.68,49.8-.72,70.35,22.12l-2.11,1.9C55.28,58.37,21.72,47.37,8.08,58.03c-1.25.98-1.88,2.08-1.97,3.48l-2.83-.18Z"/>
      <path class="cls-1" d="M24.03,71.55c-8.48-2.52-15.54-6.4-19.84-11.4l2.15-1.85c8.96,10.44,35.59,17.53,60.93,11.45l.66,2.76c-14.69,3.52-30.95,2.89-43.91-.96Z"/>
      <path class="cls-1" d="M21.72,63.44c-5.44-1.61-10.19-3.76-13.89-6.39l1.64-2.32c10.58,7.51,30.53,10.93,49.66,8.53l.36,2.82c-13.21,1.66-26.85.6-37.76-2.64Z"/>
    </g>
  </g>
</svg>