<svg xmlns="http://www.w3.org/2000/svg" viewBox="0 0 83.13 77.17" fill="currentColor">
  <path d="M0,12.79C0,10.45.13,8.31.5,6.1,1.03,3.02,3.35.89,6.43.43,9.09.05,11.6,0,14.38,0l47.93.03c.83,0,1.74.31,2.44.57l5.93,2.26c1.67.64,2.76,2.16,2.8,3.96l.09,5.35c.02,1.07.71,1.98,1.54,2.63l5.26,4.1c1.88,1.45,2.68,3.67,2.69,6.1l.06,17.86c.02,7.09-1.6,8.64-7.97,11.57-1.19.54-1.7,1.39-1.71,2.74,0,1.58-.85,3.12-2.37,3.77-2.63,1.13-5.23,2.06-7.95,3.03-.68.24-1.33.83-1.74,1.44l-2.05,3.08c-.1.15-.11.57,0,.67.08.07.42.22.58.23l2.64.06c2.21.05,3.32,1.89,3.27,3.94-.06,1.86-1.11,3.76-3.27,3.76H11.18c-2.18.02-3.48-1.75-3.45-3.76.02-1.24.25-2.3,1.08-3.06,1.57-1.43,3.24-.62,4.05-1.13.18-.12.13-.76-.02-.98l-2.06-3.04c-1.47-2.16-5.27-.69-8.22-3.38-1.29-1.17-2-2.96-2.21-4.73C.03,54.44,0,51.96,0,49.23V12.79ZM11.18,71.2c-.49,0-1.06.23-1.28.48-.59.65-.69,3.16.67,3.72h40.82c.57,0,1.23-.2,1.46-.49.8-1.07.49-3.71-.86-3.71H11.18ZM51.28,66.06c-.14-.15-.54-.26-.88-.26l-35.8.03c-.79,0-.55,1.73,0,1.86.59,1.18,1.41,1.8,2.85,1.73l31.55-.02c1.66,0,3.01-2.6,2.28-3.35ZM1.78,54.01l.32,3.11c.5,4.76,4.97,5.13,9.3,5.12l43-.02c1.08,0,2.09-.21,3.03-.37,4.67-.76,4.79-5.33,4.79-9.83V11.79c0-2.02-.1-3.83-.52-5.72-.91-4.12-5.28-4.28-9.31-4.27H9.79c-.97,0-1.82.2-2.72.29C2.12,2.59,1.76,6.91,1.76,11.6l.02,42.41Z"/>
  <path d="M7.19,12.6l.23-1.8c.38-2.94,2.91-3.61,5.96-3.61h37.63c.88,0,1.71.18,2.5.32,2.81.48,3.29,3.15,3.29,6.08v36.23c0,3.15-.26,6.32-3.43,6.73l-2.17.29H12.9l-2.12-.25c-1.73-.2-3.15-1.47-3.34-3.21l-.27-2.55V12.6ZM23.1,49.38h17.99c3.95-.02,7.44-.76,7.98-4.92.29-2.24.32-4.47.32-6.78v-11.56c0-2.19-.04-4.28-.29-6.43-.5-4.16-3.76-5.04-7.77-5.04h-18.11c-3.59,0-7.14.38-8.07,3.91-.3,1.18-.53,2.4-.53,3.67v19.52c0,1.21.22,2.41.48,3.55.82,3.52,4.33,4.08,8,4.08ZM10.87,53.16l3.56-3.54c1-.99-1.35-2.75-1.39-6.81l-.11-12.11c0-.33-.15-.94-.36-1.12-.78-.65-3.55-.92-3.56.18l-.02,22.81c0,.76,1.43,1.03,1.88.58ZM8.99,26.47c.62.96,2.72,1.15,3.37.76.25-.14.53-.77.54-1.11l.12-4.96c0-.46.27-1.43-.12-1.73l-2.16-1.64c-.26-.2-1.07-.1-1.32.07-.24.16-.47.68-.47,1.04l.04,7.55ZM8.99,14.33l3.39,2.5c.68.5,1.6-.09,1.94-.59.33-.48.6-1.35.07-1.89l-3.41-3.43c-.28-.29-1.03-.35-1.33-.19-.37.19-.72.77-.71,1.17l.06,2.43Z"/>
  <path d="M23.26,37.77c6.55,5.73,19.76.66,16.61-2.75-.82-.89-1.91-.57-2.8.1-3.04,2.32-8.98,2.35-11.45-.02-.83-.8-1.99-.86-2.7-.1-.73.79-.52,2.02.34,2.77Z"/>
  <path d="M23.42,30.71c.43.59,1.32.78,2.09.52.72-.25,1.05-1.04,1.04-1.9l-.08-4.37c-.02-1-1.31-1.39-2.02-1.23-.92.2-1.46.92-1.39,2.05.06,1.05,1.17,1.39,1.07,2.02-.11.65-1.81,1.39-.71,2.91Z"/>
  <path d="M36.23,25.77c.08,1.04,1.16,1.38,1.06,2.04-.04.25-.37.62-.7.94-.56.57-.41,1.54.08,2.06.45.48,1.26.65,2,.41.57-.18,1.06-.92,1.05-1.69l-.04-4.41c-.02-1.03-1.12-1.51-1.9-1.43-1.02.1-1.64.88-1.55,2.07Z"/>
</svg>
